<svg xmlns="http://www.w3.org/2000/svg" width="900" height="350" viewBox="0 0 900 350">
  <defs>
    <!-- Deep cosmic background -->
    <linearGradient id="bg" x1="0%" y1="0%" x2="100%" y2="100%">
      <stop offset="0%" style="stop-color:#030014"/>
      <stop offset="25%" style="stop-color:#0d0534"/>
      <stop offset="50%" style="stop-color:#070e27"/>
      <stop offset="75%" style="stop-color:#0d0534"/>
      <stop offset="100%" style="stop-color:#030014"/>
    </linearGradient>

    <!-- Nebula gradients -->
    <radialGradient id="nebula1" cx="20%" cy="40%" r="35%">
      <stop offset="0%" style="stop-color:#7c3aed;stop-opacity:0.12"/>
      <stop offset="100%" style="stop-color:#7c3aed;stop-opacity:0"/>
    </radialGradient>
    <radialGradient id="nebula2" cx="80%" cy="30%" r="30%">
      <stop offset="0%" style="stop-color:#06b6d4;stop-opacity:0.08"/>
      <stop offset="100%" style="stop-color:#06b6d4;stop-opacity:0"/>
    </radialGradient>
    <radialGradient id="nebula3" cx="60%" cy="80%" r="25%">
      <stop offset="0%" style="stop-color:#ec4899;stop-opacity:0.06"/>
      <stop offset="100%" style="stop-color:#ec4899;stop-opacity:0"/>
    </radialGradient>

    <!-- Title gradient animated -->
    <linearGradient id="titleG" x1="0%" y1="0%" x2="100%" y2="0%">
      <stop offset="0%" style="stop-color:#e9d5ff">
        <animate attributeName="stop-color" values="#e9d5ff;#a5f3fc;#fda4af;#e9d5ff" dur="6s" repeatCount="indefinite"/>
      </stop>
      <stop offset="33%" style="stop-color:#a5f3fc">
        <animate attributeName="stop-color" values="#a5f3fc;#fda4af;#e9d5ff;#a5f3fc" dur="6s" repeatCount="indefinite"/>
      </stop>
      <stop offset="66%" style="stop-color:#fda4af">
        <animate attributeName="stop-color" values="#fda4af;#e9d5ff;#a5f3fc;#fda4af" dur="6s" repeatCount="indefinite"/>
      </stop>
      <stop offset="100%" style="stop-color:#e9d5ff">
        <animate attributeName="stop-color" values="#e9d5ff;#a5f3fc;#fda4af;#e9d5ff" dur="6s" repeatCount="indefinite"/>
      </stop>
    </linearGradient>

    <!-- Glow filters -->
    <filter id="glow">
      <feGaussianBlur stdDeviation="4" result="blur"/>
      <feMerge><feMergeNode in="blur"/><feMergeNode in="SourceGraphic"/></feMerge>
    </filter>
    <filter id="glowSoft">
      <feGaussianBlur stdDeviation="2" result="blur"/>
      <feMerge><feMergeNode in="blur"/><feMergeNode in="SourceGraphic"/></feMerge>
    </filter>
    <filter id="glowStrong">
      <feGaussianBlur stdDeviation="8" result="blur"/>
      <feMerge><feMergeNode in="blur"/><feMergeNode in="blur"/><feMergeNode in="SourceGraphic"/></feMerge>
    </filter>

    <!-- Accent line gradient -->
    <linearGradient id="accentLine" x1="0%" y1="0%" x2="100%" y2="0%">
      <stop offset="0%" style="stop-color:#7c3aed;stop-opacity:0"/>
      <stop offset="25%" style="stop-color:#7c3aed;stop-opacity:0.8"/>
      <stop offset="50%" style="stop-color:#06b6d4;stop-opacity:0.8"/>
      <stop offset="75%" style="stop-color:#ec4899;stop-opacity:0.8"/>
      <stop offset="100%" style="stop-color:#ec4899;stop-opacity:0"/>
    </linearGradient>

    <!-- Badge pill gradients -->
    <linearGradient id="pillBg" x1="0%" y1="0%" x2="0%" y2="100%">
      <stop offset="0%" style="stop-color:#1e1b4b;stop-opacity:0.8"/>
      <stop offset="100%" style="stop-color:#0f0a2e;stop-opacity:0.9"/>
    </linearGradient>
  </defs>

  <style>
    @keyframes twinkle { 0%,100% { opacity:0.1; r:0.8; } 50% { opacity:1; r:1.5; } }
    @keyframes twinkleSlow { 0%,100% { opacity:0.2; } 50% { opacity:0.8; } }
    @keyframes float1 { 0%,100% { transform:translate(0,0); } 50% { transform:translate(8px,-12px); } }
    @keyframes float2 { 0%,100% { transform:translate(0,0); } 50% { transform:translate(-10px,8px); } }
    @keyframes borderGlow { 0%,100% { stroke-opacity:0.15; } 50% { stroke-opacity:0.45; } }
    @keyframes cursorBlink { 0%,49% { opacity:1; } 50%,100% { opacity:0; } }
    @keyframes lineShimmer {
      0% { stroke-dashoffset: 40; }
      100% { stroke-dashoffset: 0; }
    }
    @keyframes orbitSpin { 0% { transform:rotate(0deg); } 100% { transform:rotate(360deg); } }
    @keyframes ringPulse { 0%,100% { opacity:0.03; } 50% { opacity:0.08; } }
    @keyframes labelFade { 0% { opacity:0; } 100% { opacity:1; } }

    .star { animation: twinkle 3s ease-in-out infinite; }
    .starSlow { animation: twinkleSlow 5s ease-in-out infinite; }
    .fl1 { animation: float1 10s ease-in-out infinite; }
    .fl2 { animation: float2 12s ease-in-out infinite; }
    .bg-border { animation: borderGlow 4s ease-in-out infinite; }
    .cursor { animation: cursorBlink 1s step-end infinite; }
    .orbit { animation: orbitSpin 30s linear infinite; transform-origin: 450px 150px; }
    .ring-p { animation: ringPulse 5s ease-in-out infinite; }
    .line-sh { animation: lineShimmer 2s linear infinite; }
  </style>

  <!-- Background -->
  <rect width="900" height="350" rx="18" fill="url(#bg)"/>

  <!-- Nebula layers -->
  <rect width="900" height="350" rx="18" fill="url(#nebula1)"/>
  <rect width="900" height="350" rx="18" fill="url(#nebula2)"/>
  <rect width="900" height="350" rx="18" fill="url(#nebula3)"/>

  <!-- Border -->
  <rect x="1" y="1" width="898" height="348" rx="18" fill="none" stroke="#7c3aed" stroke-width="1" class="bg-border"/>

  <!-- Orbit rings -->
  <g class="orbit" opacity="0.04">
    <ellipse cx="450" cy="150" rx="340" ry="120" fill="none" stroke="#c084fc" stroke-width="0.8" stroke-dasharray="6 10"/>
  </g>
  <g class="orbit" opacity="0.03" style="animation-duration:45s; animation-direction:reverse;">
    <ellipse cx="450" cy="150" rx="280" ry="90" fill="none" stroke="#22d3ee" stroke-width="0.6" stroke-dasharray="4 14"/>
  </g>

  <!-- Stars field -->
  <circle cx="45" cy="28" r="1" fill="#fff" class="star" style="animation-delay:0s"/>
  <circle cx="130" cy="55" r="0.7" fill="#e9d5ff" class="star" style="animation-delay:0.4s"/>
  <circle cx="220" cy="22" r="0.9" fill="#fff" class="star" style="animation-delay:0.9s"/>
  <circle cx="340" cy="40" r="0.6" fill="#a5f3fc" class="star" style="animation-delay:1.3s"/>
  <circle cx="480" cy="18" r="1.1" fill="#fff" class="star" style="animation-delay:1.8s"/>
  <circle cx="590" cy="35" r="0.8" fill="#fda4af" class="star" style="animation-delay:0.2s"/>
  <circle cx="680" cy="20" r="0.7" fill="#fff" class="star" style="animation-delay:2.1s"/>
  <circle cx="790" cy="42" r="1" fill="#e9d5ff" class="star" style="animation-delay:0.7s"/>
  <circle cx="860" cy="22" r="0.6" fill="#a5f3fc" class="star" style="animation-delay:1.6s"/>
  <circle cx="70" cy="310" r="0.8" fill="#fff" class="star" style="animation-delay:1.1s"/>
  <circle cx="200" cy="330" r="0.6" fill="#fda4af" class="star" style="animation-delay:2.4s"/>
  <circle cx="380" cy="320" r="0.9" fill="#fff" class="star" style="animation-delay:0.5s"/>
  <circle cx="550" cy="335" r="0.7" fill="#e9d5ff" class="star" style="animation-delay:1.9s"/>
  <circle cx="720" cy="318" r="0.8" fill="#a5f3fc" class="star" style="animation-delay:0.8s"/>
  <circle cx="840" cy="328" r="0.6" fill="#fff" class="star" style="animation-delay:2.7s"/>
  <circle cx="25" cy="170" r="0.5" fill="#c4b5fd" class="starSlow" style="animation-delay:0s"/>
  <circle cx="875" cy="180" r="0.6" fill="#c4b5fd" class="starSlow" style="animation-delay:2s"/>
  <circle cx="90" cy="130" r="0.4" fill="#fff" class="starSlow" style="animation-delay:1s"/>
  <circle cx="810" cy="120" r="0.5" fill="#a5f3fc" class="starSlow" style="animation-delay:3s"/>

  <!-- Decorative corner hexagons -->
  <g transform="translate(40, 85)" opacity="0.06" class="fl1">
    <polygon points="18,0 36,10 36,30 18,40 0,30 0,10" fill="none" stroke="#c084fc" stroke-width="1"/>
  </g>
  <g transform="translate(830, 250)" opacity="0.06" class="fl2">
    <polygon points="14,0 28,8 28,24 14,32 0,24 0,8" fill="none" stroke="#22d3ee" stroke-width="1"/>
  </g>

  <!-- ═══════ Top accent line ═══════ -->
  <line x1="180" y1="65" x2="720" y2="65" stroke="url(#accentLine)" stroke-width="1" opacity="0.6"/>

  <!-- ═══════ MAIN TITLE ═══════ -->
  <text x="450" y="115" font-family="'Segoe UI', Arial, sans-serif" font-size="48" font-weight="900" fill="url(#titleG)" text-anchor="middle" filter="url(#glow)" letter-spacing="3">
    JAVA LAB 8
  </text>

  <!-- ═══════ SUBTITLE ═══════ -->
  <text x="450" y="148" font-family="'Segoe UI', Arial, sans-serif" font-size="13" fill="#94a3b8" text-anchor="middle" letter-spacing="7" font-weight="400">
    ENTERPRISE CLIENT-SERVER APPLICATION
  </text>

  <!-- ═══════ Accent line under subtitle ═══════ -->
  <line x1="300" y1="162" x2="600" y2="162" stroke="url(#accentLine)" stroke-width="0.8" opacity="0.35"/>

  <!-- ═══════ Terminal block ═══════ -->
  <g transform="translate(175, 180)">
    <!-- Terminal window -->
    <rect x="0" y="0" width="550" height="60" rx="8" fill="#0c0a1e" stroke="#1e1b4b" stroke-width="1"/>
    <!-- Title bar -->
    <rect x="0" y="0" width="550" height="20" rx="8" fill="#1a1744" opacity="0.5"/>
    <rect x="0" y="12" width="550" height="8" fill="#1a1744" opacity="0.5"/>
    <!-- Traffic lights -->
    <circle cx="16" cy="10" r="4" fill="#f43f5e" opacity="0.7"/>
    <circle cx="30" cy="10" r="4" fill="#f59e0b" opacity="0.7"/>
    <circle cx="44" cy="10" r="4" fill="#22c55e" opacity="0.7"/>
    <!-- Terminal title -->
    <text x="275" y="14" font-family="'Segoe UI', Arial, sans-serif" font-size="9" fill="#64748b" text-anchor="middle">terminal — java@itmo</text>

    <!-- Command line -->
    <text x="16" y="42" font-family="'Cascadia Code', 'Fira Code', Consolas, monospace" font-size="13">
      <tspan fill="#a78bfa">❯</tspan>
      <tspan fill="#94a3b8"> java </tspan>
      <tspan fill="#f472b6">--module-path</tspan>
      <tspan fill="#94a3b8"> fx </tspan>
      <tspan fill="#22d3ee">Server</tspan>
      <tspan fill="#64748b"> &amp; </tspan>
      <tspan fill="#22d3ee">Client</tspan>
    </text>
    <!-- Blinking cursor -->
    <rect x="370" y="31" width="9" height="15" rx="1" fill="#7c3aed" class="cursor" opacity="0.9"/>

    <!-- Output line -->
    <text x="16" y="56" font-family="'Cascadia Code', 'Fira Code', Consolas, monospace" font-size="10" fill="#22c55e" opacity="0.6">
      ✓ Server started on port 8080 — NIO Selector ready
    </text>
  </g>

  <!-- ═══════ Tech Pills Row ═══════ -->
  <g transform="translate(145, 260)">
    <!-- Java -->
    <rect x="0" y="0" width="85" height="26" rx="13" fill="url(#pillBg)" stroke="#7c3aed" stroke-width="0.7">
      <animate attributeName="stroke-opacity" values="0.3;0.8;0.3" dur="3s" repeatCount="indefinite"/>
    </rect>
    <svg x="8" y="5" width="16" height="16" viewBox="0 0 128 128"><path fill="#0074BD" d="M47.617 98.12s-4.767 2.774 3.397 3.71c9.892 1.13 14.947.968 25.845-1.092 0 0 2.871 1.795 6.873 3.351-24.439 10.47-55.308-.607-36.115-5.969zm-2.988-13.665s-5.348 3.959 2.823 4.805c10.567 1.091 18.91 1.18 33.354-1.6 0 0 1.993 2.025 5.132 3.131-29.542 8.64-62.446.68-41.309-6.336z"/><path fill="#EA2D2E" d="M69.802 61.271c6.025 6.935-1.58 13.17-1.58 13.17s15.289-7.891 8.269-17.777c-6.559-9.215-11.587-13.792 15.635-29.58 0 .001-42.731 10.67-22.324 34.187z"/><path fill="#0074BD" d="M102.123 108.229s3.529 2.91-3.888 5.159c-14.102 4.272-58.706 5.56-71.094.171-4.451-1.938 3.899-4.625 6.526-5.192 2.739-.593 4.303-.485 4.303-.485-4.953-3.487-32.013 6.85-13.743 9.815 49.821 8.076 90.817-3.637 77.896-9.468zM49.912 70.294s-22.686 5.389-8.033 7.348c6.188.828 18.518.638 30.011-.326 9.39-.789 18.813-2.474 18.813-2.474s-3.308 1.419-5.704 3.053c-23.042 6.061-67.544 3.238-54.731-2.958 10.832-5.239 19.644-4.643 19.644-4.643zm40.697 22.747c23.421-12.167 12.591-23.86 5.032-22.285-1.848.385-2.677.72-2.677.72s.688-1.079 2-1.543c14.953-5.255 26.451 15.503-4.823 23.725 0-.002.359-.327.468-.617z"/><path fill="#EA2D2E" d="M76.491 1.587S89.459 14.563 64.188 34.51c-20.266 16.006-4.621 25.13-.007 35.559-11.831-10.673-20.509-20.07-14.688-28.815C58.041 28.42 81.722 22.195 76.491 1.587z"/><path fill="#0074BD" d="M52.214 126.021c22.476 1.437 57-.8 57.817-11.436 0 0-1.571 4.032-18.577 7.231-19.186 3.612-42.854 3.191-56.887.874 0 .001 2.875 2.381 17.647 3.331z"/></svg>
    <text x="28" y="17" font-family="'Segoe UI', Arial, sans-serif" font-size="11" fill="#c084fc" font-weight="600">Java 21</text>

    <!-- JavaFX -->
    <rect x="95" y="0" width="85" height="26" rx="13" fill="url(#pillBg)" stroke="#06b6d4" stroke-width="0.7">
      <animate attributeName="stroke-opacity" values="0.3;0.8;0.3" dur="3.4s" repeatCount="indefinite"/>
    </rect>
    <svg x="103" y="5" width="16" height="16" viewBox="0 0 128 128"><path fill="#1572B6" d="M18.814 114.123L8.76 1.352h110.48l-10.064 112.754-45.243 12.543-45.119-12.526z"/><path fill="#33A9DC" d="M64.001 117.062l36.559-10.136 8.601-96.354h-45.16v106.49z"/><path fill="#fff" d="M64.001 51.429h18.302l1.264-14.163H64.001V23.435h34.682l-.332 3.711-3.4 38.114h-30.95V51.429z"/><path fill="#EBEBEB" d="M64.083 87.349l-.061.018-15.403-4.159-.985-11.031H33.752l1.937 21.717 28.331 7.863.063-.018v-14.39z"/><path fill="#fff" d="M81.127 64.675l-1.666 18.522-15.426 4.164v14.39l28.354-7.858.208-2.337 2.406-26.881H81.127z"/><path fill="#EBEBEB" d="M64.048 23.435v13.831H30.64l-.277-3.108-.63-7.012-.331-3.711h34.646zm-.047 27.996v13.831H48.792l-.277-3.108-.631-7.012-.33-3.711h16.447z"/></svg>
    <text x="123" y="17" font-family="'Segoe UI', Arial, sans-serif" font-size="11" fill="#22d3ee" font-weight="600">JavaFX</text>

    <!-- PostgreSQL -->
    <rect x="190" y="0" width="105" height="26" rx="13" fill="url(#pillBg)" stroke="#3b82f6" stroke-width="0.7">
      <animate attributeName="stroke-opacity" values="0.3;0.8;0.3" dur="3.8s" repeatCount="indefinite"/>
    </rect>
    <svg x="198" y="5" width="16" height="16" viewBox="0 0 128 128"><path d="M93.809 92.112c.785-6.533.55-7.492 5.416-6.433l1.235.108c3.742.17 8.637-.602 11.513-1.938 6.191-2.873 9.861-7.668 3.758-6.409-13.924 2.873-14.881-1.842-14.881-1.842 14.703-21.815 20.849-49.508 15.543-56.287-14.47-18.489-39.517-9.746-39.936-9.52l-.134.025c-2.751-.571-5.83-.912-9.289-.968-6.301-.104-11.082 1.652-14.709 4.402 0 0-44.683-18.409-42.604 23.151.442 8.841 12.672 66.898 27.26 49.362 5.332-6.412 10.484-11.834 10.484-11.834 2.558 1.699 5.622 2.567 8.834 2.255l.249-.212c-.078.796-.044 1.575.099 2.497-3.757 4.199-2.653 4.936-10.166 6.482-7.602 1.566-3.136 4.355-.221 5.084 3.535.884 11.712 2.136 17.238-5.598l-.22.882c1.474 1.18 1.375 8.477 1.583 13.69.209 5.214.558 10.079 1.621 12.948 1.063 2.868 2.317 10.256 12.191 8.14 8.252-1.764 14.561-4.309 15.136-27.985"/><path d="M75.458 125.256c-4.367 0-7.211-1.689-8.938-3.32-2.607-2.46-3.641-5.629-4.259-7.522l-.267-.79c-1.244-3.358-1.666-8.193-1.916-14.419-.038-.935-.064-1.898-.093-2.919-.021-.747-.047-1.684-.085-2.664a18.8 18.8 0 01-4.962 1.568c-3.079.526-6.389.356-9.84-.507-2.435-.609-4.965-1.871-6.407-3.82-4.203 3.681-8.212 3.182-10.396 2.453-3.853-1.285-7.301-4.896-10.542-11.037-2.309-4.375-4.542-10.075-6.638-16.943-3.65-11.96-5.969-24.557-6.175-28.693C4.292 23.698 7.777 14.44 15.296 9.129 27.157.751 45.128 5.678 51.68 7.915c4.402-2.653 9.581-3.944 15.433-3.851 3.143.051 6.136.327 8.916.823 2.9-.912 8.628-2.221 15.185-2.139 12.081.144 22.092 4.852 28.949 13.615 4.894 6.252 2.474 19.381.597 26.651-2.642 10.226-7.271 21.102-12.957 30.57 1.544.011 3.781-.174 6.961-.831 6.274-1.295 8.109 2.069 8.607 3.575 1.995 6.042-6.677 10.608-9.382 11.864-3.466 1.609-9.117 2.589-13.745 2.377l-.202-.013-1.216-.107-.12 1.014-.116.991c-.311 11.999-2.025 19.598-5.552 24.619-3.697 5.264-8.835 6.739-13.361 7.709-1.544.33-2.947.474-4.219.474zm-9.19-43.671c2.819 2.256 3.066 6.501 3.287 14.434.028.99.054 1.927.089 2.802.106 2.65.355 8.855 1.327 11.477.137.371.26.747.39 1.146 1.083 3.316 1.626 4.979 6.309 3.978 3.931-.843 5.952-1.599 7.534-3.851 2.299-3.274 3.585-9.86 3.821-19.575l4.783.116-4.75-.57.14-1.186c.455-3.91.783-6.734 3.396-8.602 2.097-1.498 4.486-1.353 6.389-1.01-2.091-1.58-2.669-3.433-2.823-4.193l-.399-1.965 1.121-1.663c6.457-9.58 11.781-21.354 14.609-32.304 2.906-11.251 2.02-17.226 1.134-18.356-11.729-14.987-32.068-8.799-34.192-8.097l-.359.194-1.8.335-.922-.191c-2.542-.528-5.366-.82-8.393-.869-4.756-.08-8.593 1.044-11.739 3.431l-2.183 1.655-2.533-1.043c-5.412-2.213-21.308-6.662-29.696-.721-4.656 3.298-6.777 9.76-6.305 19.207.156 3.119 2.275 14.926 5.771 26.377 4.831 15.825 9.221 21.082 11.054 21.693.32.108 1.15-.537 1.976-1.529a270.708 270.708 0 0110.694-12.07l2.77-2.915 3.349 2.225c1.35.897 2.839 1.406 4.368 1.502l7.987-6.812-1.157 11.808c-.026.265-.039.626.065 1.296l.348 2.238-1.51 1.688-.174.196 4.388 2.025 1.836-2.301z"/><path fill="#336791" d="M115.731 77.44c-13.925 2.873-14.882-1.842-14.882-1.842 14.703-21.816 20.849-49.51 15.545-56.287C101.924.823 76.875 9.566 76.457 9.793l-.135.024c-2.751-.571-5.83-.911-9.291-.967-6.301-.103-11.08 1.652-14.707 4.402 0 0-44.684-18.408-42.606 23.151.442 8.842 12.672 66.899 27.26 49.363 5.332-6.412 10.483-11.834 10.483-11.834 2.559 1.699 5.622 2.567 8.833 2.255l.25-.212c-.078.796-.042 1.575.1 2.497-3.758 4.199-2.654 4.936-10.167 6.482-7.602 1.566-3.136 4.355-.22 5.084 3.534.884 11.712 2.136 17.237-5.598l-.221.882c1.473 1.18 2.507 7.672 2.334 13.557-.174 5.885-.29 9.926.871 13.082 1.16 3.156 2.316 10.256 12.192 8.14 8.252-1.768 12.528-6.351 13.124-13.995.422-5.435 1.377-4.631 1.438-9.49l.767-2.3c.884-7.367.14-9.743 5.225-8.638l1.235.108c3.742.17 8.639-.602 11.514-1.938 6.19-2.871 9.861-7.667 3.758-6.408z"/><path fill="#fff" d="M75.957 122.307c-8.232 0-10.84-6.519-11.907-9.185-1.562-3.907-1.899-19.069-1.551-31.503a1.59 1.59 0 011.64-1.55 1.594 1.594 0 011.55 1.639c-.401 14.341.168 27.337 1.324 30.229 1.804 4.509 4.54 8.453 12.275 6.796 7.343-1.575 10.093-4.359 11.318-11.46.94-5.449 2.799-20.951 3.028-24.01a1.593 1.593 0 011.71-1.472 1.597 1.597 0 011.472 1.71c-.239 3.185-2.089 18.657-3.065 24.315-1.446 8.387-5.185 12.191-13.794 14.037-1.463.313-2.792.453-4 .454zM31.321 90.466a6.71 6.71 0 01-2.116-.35c-5.347-1.784-10.44-10.492-15.138-25.885-3.576-11.717-5.842-23.947-6.041-27.922-.589-11.784 2.445-20.121 9.02-24.778 13.007-9.216 34.888-.44 35.813-.062a1.596 1.596 0 01-1.207 2.955c-.211-.086-21.193-8.492-32.768-.285-5.622 3.986-8.203 11.392-7.672 22.011.167 3.349 2.284 15.285 5.906 27.149 4.194 13.742 8.967 22.413 13.096 23.79.648.216 2.62.873 5.439-2.517A245.272 245.272 0 0145.88 73.046a1.596 1.596 0 012.304 2.208c-.048.05-4.847 5.067-10.077 11.359-2.477 2.979-4.851 3.853-6.786 3.853zm69.429-13.445a1.596 1.596 0 01-1.322-2.487c14.863-22.055 20.08-48.704 15.612-54.414-5.624-7.186-13.565-10.939-23.604-11.156-7.433-.16-13.341 1.738-14.307 2.069l-.243.099c-.971.305-1.716-.227-1.997-.849a1.6 1.6 0 01.631-2.025c.046-.027.192-.089.429-.176l-.021.006.021-.007c1.641-.601 7.639-2.4 15.068-2.315 11.108.118 20.284 4.401 26.534 12.388 2.957 3.779 2.964 12.485.019 23.887-3.002 11.625-8.651 24.118-15.497 34.277-.306.457-.81.703-1.323.703zm.76 10.21c-2.538 0-4.813-.358-6.175-1.174-1.4-.839-1.667-1.979-1.702-2.584-.382-6.71 3.32-7.878 5.208-8.411-.263-.398-.637-.866-1.024-1.349-1.101-1.376-2.609-3.26-3.771-6.078-.182-.44-.752-1.463-1.412-2.648-3.579-6.418-11.026-19.773-6.242-26.612 2.214-3.165 6.623-4.411 13.119-3.716C97.6 28.837 88.5 10.625 66.907 10.271c-6.494-.108-11.82 1.889-15.822 5.93-8.96 9.049-8.636 25.422-8.631 25.586a1.595 1.595 0 11-3.19.084c-.02-.727-.354-17.909 9.554-27.916C53.455 9.272 59.559 6.96 66.96 7.081c13.814.227 22.706 7.25 27.732 13.101 5.479 6.377 8.165 13.411 8.386 15.759.165 1.746-1.088 2.095-1.341 2.147l-.576.013c-6.375-1.021-10.465-.312-12.156 2.104-3.639 5.201 3.406 17.834 6.414 23.229.768 1.376 1.322 2.371 1.576 2.985.988 2.396 2.277 4.006 3.312 5.3.911 1.138 1.7 2.125 1.982 3.283.131.23 1.99 2.98 13.021.703 2.765-.57 4.423-.083 4.93 1.45.997 3.015-4.597 6.532-7.694 7.97-2.775 1.29-7.204 2.106-11.036 2.106zm-4.696-4.021c.35.353 2.101.962 5.727.806 3.224-.138 6.624-.839 8.664-1.786 2.609-1.212 4.351-2.567 5.253-3.492l-.5.092c-7.053 1.456-12.042 1.262-14.828-.577a6.162 6.162 0 01-.54-.401c-.302.119-.581.197-.78.253-1.58.443-3.214.902-2.996 5.105zm-45.562 8.915c-1.752 0-3.596-.239-5.479-.71-1.951-.488-5.24-1.957-5.19-4.37.057-2.707 3.994-3.519 5.476-3.824 5.354-1.103 5.703-1.545 7.376-3.67.488-.619 1.095-1.39 1.923-2.314 1.229-1.376 2.572-2.073 3.992-2.073.989 0 1.8.335 2.336.558 1.708.708 3.133 2.42 3.719 4.467.529 1.847.276 3.625-.71 5.006-3.237 4.533-7.886 6.93-13.443 6.93zm-7.222-4.943c.481.372 1.445.869 2.518 1.137 1.631.408 3.213.615 4.705.615 4.546 0 8.196-1.882 10.847-5.594.553-.774.387-1.757.239-2.274-.31-1.083-1.08-2.068-1.873-2.397-.43-.178-.787-.314-1.115-.314-.176 0-.712 0-1.614 1.009a41.146 41.146 0 00-1.794 2.162c-2.084 2.646-3.039 3.544-9.239 4.821-1.513.31-2.289.626-2.674.835zm12.269-7.36a1.596 1.596 0 01-1.575-1.354 8.218 8.218 0 01-.08-.799c-4.064-.076-7.985-1.82-10.962-4.926-3.764-3.927-5.477-9.368-4.699-14.927.845-6.037.529-11.366.359-14.229-.047-.796-.081-1.371-.079-1.769.003-.505.013-1.844 4.489-4.113 1.592-.807 4.784-2.215 8.271-2.576 5.777-.597 9.585 1.976 10.725 7.246 3.077 14.228.244 20.521-1.825 25.117-.385.856-.749 1.664-1.04 2.447l-.257.69c-1.093 2.931-2.038 5.463-1.748 7.354a1.595 1.595 0 01-1.335 1.819l-.244.02zM42.464 42.26l.062 1.139c.176 2.974.504 8.508-.384 14.86-.641 4.585.759 9.06 3.843 12.276 2.437 2.542 5.644 3.945 8.94 3.945h.068c.369-1.555.982-3.197 1.642-4.966l.255-.686c.329-.884.714-1.74 1.122-2.646 1.991-4.424 4.47-9.931 1.615-23.132-.565-2.615-1.936-4.128-4.189-4.627-4.628-1.022-11.525 2.459-12.974 3.837zm9.63-.677c-.08.564 1.033 2.07 2.485 2.271 1.449.203 2.689-.975 2.768-1.539.079-.564-1.033-1.186-2.485-1.388-1.451-.202-2.691.092-2.768.656zm2.818 2.826l-.407-.028c-.9-.125-1.81-.692-2.433-1.518-.219-.29-.576-.852-.505-1.354.101-.736.999-1.177 2.4-1.177.313 0 .639.023.967.069.766.106 1.477.327 2.002.62.91.508.977 1.075.936 1.368-.112.813-1.405 2.02-2.96 2.02zm-2.289-2.732c.045.348.907 1.496 2.029 1.651l.261.018c1.036 0 1.81-.815 1.901-1.082-.096-.182-.762-.634-2.025-.81a5.823 5.823 0 00-.821-.059c-.812 0-1.243.183-1.345.282zm43.605-1.245c.079.564-1.033 2.07-2.484 2.272-1.45.202-2.691-.975-2.771-1.539-.076-.564 1.036-1.187 2.486-1.388 1.45-.203 2.689.092 2.769.655zm-2.819 2.56c-1.396 0-2.601-1.086-2.7-1.791-.115-.846 1.278-1.489 2.712-1.688.316-.044.629-.066.93-.066 1.238 0 2.058.363 2.14.949.053.379-.238.964-.739 1.492-.331.347-1.026.948-1.973 1.079l-.37.025zm.943-3.013c-.276 0-.564.021-.856.061-1.441.201-2.301.779-2.259 1.089.048.341.968 1.332 2.173 1.332l.297-.021c.787-.109 1.378-.623 1.66-.919.443-.465.619-.903.598-1.052-.028-.198-.56-.49-1.613-.49zm3.965 32.843a1.594 1.594 0 01-1.324-2.483c3.398-5.075 2.776-10.25 2.175-15.255-.257-2.132-.521-4.337-.453-6.453.07-2.177.347-3.973.614-5.71.317-2.058.617-4.002.493-6.31a1.595 1.595 0 113.186-.172c.142 2.638-.197 4.838-.525 6.967-.253 1.643-.515 3.342-.578 5.327-.061 1.874.178 3.864.431 5.97.64 5.322 1.365 11.354-2.691 17.411a1.596 1.596 0 01-1.328.708z"/></svg>
    <text x="218" y="17" font-family="'Segoe UI', Arial, sans-serif" font-size="11" fill="#60a5fa" font-weight="600">PostgreSQL</text>

    <!-- NIO -->
    <rect x="305" y="0" width="85" height="26" rx="13" fill="url(#pillBg)" stroke="#84cc16" stroke-width="0.7">
      <animate attributeName="stroke-opacity" values="0.3;0.8;0.3" dur="3.2s" repeatCount="indefinite"/>
    </rect>
    <text x="347" y="17" font-family="'Segoe UI', Arial, sans-serif" font-size="11" fill="#a3e635" text-anchor="middle" font-weight="600">NIO</text>

    <!-- Log4j2 -->
    <rect x="400" y="0" width="85" height="26" rx="13" fill="url(#pillBg)" stroke="#f43f5e" stroke-width="0.7">
      <animate attributeName="stroke-opacity" values="0.3;0.8;0.3" dur="3.6s" repeatCount="indefinite"/>
    </rect>
    <text x="442" y="17" font-family="'Segoe UI', Arial, sans-serif" font-size="11" fill="#fb7185" text-anchor="middle" font-weight="600">Log4j2</text>

    <!-- JDBC -->
    <rect x="495" y="0" width="70" height="26" rx="13" fill="url(#pillBg)" stroke="#f59e0b" stroke-width="0.7">
      <animate attributeName="stroke-opacity" values="0.3;0.8;0.3" dur="4s" repeatCount="indefinite"/>
    </rect>
    <text x="530" y="17" font-family="'Segoe UI', Arial, sans-serif" font-size="11" fill="#fbbf24" text-anchor="middle" font-weight="600">JDBC</text>
  </g>

  <!-- ═══════ Bottom accent line ═══════ -->
  <line x1="200" y1="305" x2="700" y2="305" stroke="url(#accentLine)" stroke-width="0.6" opacity="0.25"/>

  <!-- ═══════ Footer text ═══════ -->
  <text x="450" y="330" font-family="'Segoe UI', Arial, sans-serif" font-size="10" fill="#475569" text-anchor="middle" letter-spacing="3">
    ITMO UNIVERSITY  •  SPRING 2026  •  v8.0
  </text>
</svg>
